<?xml version="1.0"?>
<svg xmlns="http://www.w3.org/2000/svg" xmlns:xlink="http://www.w3.org/1999/xlink" id="Layer_1" x="0px" y="0px" width="100%" viewBox="0 0 542 300" xml:space="preserve">
<path fill="#101011" opacity="1.000000" stroke="none" d=" M194.531464,1.000000   C199.644196,2.482233 204.407532,3.670897 208.911438,5.498798   C226.102356,12.475683 237.959106,24.933485 243.638168,42.438248   C251.789749,67.564056 246.320602,90.101532 227.541351,108.650993   C220.809067,115.300919 212.367401,120.235855 204.630173,125.849159   C193.242203,134.111038 181.786362,142.279419 170.398560,150.459518   C188.911301,163.798676 207.927078,176.657883 225.945328,190.789001   C237.338165,199.724030 243.510345,212.528885 246.056931,226.987427   C248.675156,241.852753 246.360611,255.811279 238.978714,268.854370   C229.686478,285.272766 215.647537,295.364716 197.109833,298.985474   C176.242294,303.061310 158.314194,296.825592 141.559433,284.269287   C115.400352,264.665192 88.679321,245.810059 62.162533,226.684540   C50.222603,218.072739 38.047115,209.780075 26.257385,200.969437   C12.947970,191.023117 4.059741,178.130096 1.382277,161.139709   C1.000000,154.312363 1.000000,147.624710 1.382277,140.328827   C3.990632,123.440422 12.157325,110.396484 24.979082,100.721512   C43.953705,86.403740 63.532360,72.886963 82.839600,59.009342   C96.761299,49.002731 110.589462,38.864285 124.591881,28.972237   C135.003326,21.617039 145.367294,14.131445 156.268173,7.559399   C161.569916,4.363025 168.052155,3.124707 174.000000,1.000000   C180.687637,1.000000 187.375290,1.000000 194.531464,1.000000  M60.306351,212.202530   C91.526588,234.640366 122.734108,257.095947 153.973572,279.506989   C165.862808,288.036285 178.840027,291.943695 193.569702,288.979675   C216.115845,284.442749 233.353745,267.840881 235.829727,243.680923   C237.889954,223.578003 230.528046,207.061874 213.765244,195.047134   C173.993729,166.541000 134.271194,137.966324 94.584076,109.342804   C81.472755,99.886528 67.032417,97.074867 51.330921,100.079018   C31.059694,103.957481 12.159413,125.143066 11.049495,145.556137   C10.002077,164.819717 17.193907,180.534836 32.593304,192.221878   C41.473530,198.961349 50.649582,205.311005 60.306351,212.202530  M73.639763,79.127968   C69.731743,81.997566 65.823723,84.867157 60.911678,88.473984   C62.948799,88.796600 63.551064,88.994759 64.144394,88.970886   C78.432274,88.395798 90.650780,93.663002 101.978638,101.910225   C121.358231,116.019501 140.890442,129.919128 160.327881,143.884766   C160.923737,143.597748 161.407944,143.445297 161.799789,143.164139   C180.062714,130.060013 198.575043,117.285461 216.505386,103.740585   C236.872742,88.354744 240.960312,62.060284 231.254333,40.730995   C217.621353,10.772014 179.167755,3.313811 154.537369,20.997435   C127.757042,40.224628 101.004967,59.491192 73.639763,79.127968  z"/>
<path fill="#10110F" opacity="1.000000" stroke="none" d=" M367.531433,0.999999   C373.366241,2.855008 379.242523,3.865754 383.994873,6.736878   C394.613800,13.152296 404.834961,20.268419 414.927643,27.504332   C441.629700,46.648224 468.224609,65.942711 494.761902,85.314590   C504.721741,92.585106 514.818726,99.759712 524.098083,107.844650   C533.435242,115.979897 537.868958,127.268227 539.941772,139.268860   C543.983398,162.667435 536.751038,182.541382 519.139099,198.073074   C509.948486,206.178085 499.393372,212.742630 489.407227,219.937271   C469.459320,234.308990 449.495758,248.659180 429.505859,262.972443   C415.700867,272.857178 402.097809,283.057617 387.901611,292.348602   C380.341553,297.296417 371.389191,299.449951 362.213043,300.017303   C350.455414,300.744232 339.051880,299.276306 328.530334,293.803223   C309.892273,284.108124 298.154907,268.585815 295.250458,248.019485   C291.442474,221.055145 301.647125,199.587494 324.361420,184.024200   C340.104675,173.237320 355.419800,161.825623 371.142151,150.538055   C356.188263,139.681595 341.687531,128.550247 326.557800,118.352013   C313.325226,109.432533 302.638275,98.716492 297.838318,83.279564   C291.547699,63.048668 293.763092,43.762974 306.290009,26.286705   C314.805969,14.406121 326.149506,6.346286 340.507141,2.849931   C342.233398,2.429551 343.986725,2.120368 345.863770,1.379825   C353.020966,1.000000 360.041901,1.000000 367.531433,0.999999  M530.108276,150.497604   C530.094910,133.754135 523.788513,119.687607 510.339020,109.874542   C468.913422,79.649460 427.146545,49.892059 385.504852,19.963280   C373.601898,11.408368 359.859253,9.915755 346.324341,12.633606   C324.963409,16.922955 311.114594,30.783962 306.476746,51.997765   C301.896820,72.946434 308.625275,90.824402 325.705383,104.189369   C333.828857,110.545883 342.406097,116.323044 350.787140,122.349724   C383.500122,145.873169 416.048462,169.630798 449.002289,192.811966   C465.801086,204.628937 484.177979,205.673508 502.407379,196.216446   C520.287048,186.940826 529.407532,171.654999 530.108276,150.497604  M341.180511,287.655975   C345.688263,288.436768 350.179626,289.757782 354.706879,289.894775   C367.180328,290.272186 378.367126,286.272430 388.475403,278.973022   C412.691742,261.485809 436.968933,244.082855 461.221405,226.645660   C467.105530,222.415054 472.989014,218.183594 479.905304,213.210052   C466.632599,212.304138 455.140533,209.614349 445.144623,202.769485   C433.648438,194.897278 422.428619,186.621155 411.098267,178.507187   C401.014160,171.285675 390.943024,164.046021 380.941376,156.868347   C377.150299,159.592331 373.787872,161.998230 370.435852,164.418549   C355.088348,175.500137 339.522705,186.294968 324.457703,197.748306   C308.006165,210.255783 300.717926,233.849686 307.029755,252.520264   C312.707794,269.316101 323.683655,281.127991 341.180511,287.655975  z"/>
<path fill="#4285F3" opacity="1.000000" stroke="none" d=" M59.999416,212.019318   C50.649582,205.311005 41.473530,198.961349 32.593304,192.221878   C17.193907,180.534836 10.002077,164.819717 11.049495,145.556137   C12.159413,125.143066 31.059694,103.957481 51.330921,100.079018   C67.032417,97.074867 81.472755,99.886528 94.584076,109.342804   C134.271194,137.966324 173.993729,166.541000 213.765244,195.047134   C230.528046,207.061874 237.889954,223.578003 235.829727,243.680923   C233.353745,267.840881 216.115845,284.442749 193.569702,288.979675   C178.840027,291.943695 165.862808,288.036285 153.973572,279.506989   C122.734108,257.095947 91.526588,234.640366 59.999416,212.019318  z"/>
<path fill="#E94335" opacity="1.000000" stroke="none" d=" M73.940170,78.934280   C101.004967,59.491192 127.757042,40.224628 154.537369,20.997435   C179.167755,3.313811 217.621353,10.772014 231.254333,40.730995   C240.960312,62.060284 236.872742,88.354744 216.505386,103.740585   C198.575043,117.285461 180.062714,130.060013 161.799789,143.164139   C161.407944,143.445297 160.923737,143.597748 160.327881,143.884766   C140.890442,129.919128 121.358231,116.019501 101.978638,101.910225   C90.650780,93.663002 78.432274,88.395798 64.144394,88.970886   C63.551064,88.994759 62.948799,88.796600 60.911678,88.473984   C65.823723,84.867157 69.731743,81.997566 73.940170,78.934280  z"/>
<path fill="#34A853" opacity="1.000000" stroke="none" d=" M530.108337,150.974884   C529.407532,171.654999 520.287048,186.940826 502.407379,196.216446   C484.177979,205.673508 465.801086,204.628937 449.002289,192.811966   C416.048462,169.630798 383.500122,145.873169 350.787140,122.349724   C342.406097,116.323044 333.828857,110.545883 325.705383,104.189369   C308.625275,90.824402 301.896820,72.946434 306.476746,51.997765   C311.114594,30.783962 324.963409,16.922955 346.324341,12.633606   C359.859253,9.915755 373.601898,11.408368 385.504852,19.963280   C427.146545,49.892059 468.913422,79.649460 510.339020,109.874542   C523.788513,119.687607 530.094910,133.754135 530.108337,150.974884  z"/>
<path fill="#F8AA00" opacity="1.000000" stroke="none" d=" M340.888184,287.376617   C323.683655,281.127991 312.707794,269.316101 307.029755,252.520264   C300.717926,233.849686 308.006165,210.255783 324.457703,197.748306   C339.522705,186.294968 355.088348,175.500137 370.435852,164.418549   C373.787872,161.998230 377.150299,159.592331 380.941376,156.868347   C390.943024,164.046021 401.014160,171.285675 411.098267,178.507187   C422.428619,186.621155 433.648438,194.897278 445.144623,202.769485   C455.140533,209.614349 466.632599,212.304138 479.905304,213.210052   C472.989014,218.183594 467.105530,222.415054 461.221405,226.645660   C436.968933,244.082855 412.691742,261.485809 388.475403,278.973022   C378.367126,286.272430 367.180328,290.272186 354.706879,289.894775   C350.179626,289.757782 345.688263,288.436768 340.888184,287.376617  z"/>
</svg>

