<svg width="542" height="542" viewBox="0 0 542 542" fill="none" xmlns="http://www.w3.org/2000/svg">
<g clip-path="url(#clip0_11_33)">
<path d="M193.531 122C198.644 123.482 203.407 124.671 207.911 126.499C225.102 133.476 236.959 145.933 242.638 163.438C250.79 188.564 245.32 211.102 226.541 229.651C219.809 236.301 211.367 241.236 203.63 246.849C192.242 255.111 180.786 263.279 169.398 271.46C187.911 284.799 206.927 297.658 224.945 311.789C236.338 320.724 242.51 333.529 245.057 347.987C247.675 362.853 245.361 376.811 237.979 389.854C228.686 406.273 214.647 416.365 196.11 419.985C175.242 424.061 157.314 417.826 140.559 405.269C114.4 385.665 87.6792 366.81 61.1624 347.685C49.2225 339.073 37.047 330.78 25.2573 321.969C11.9479 312.023 3.05963 299.13 0.382167 282.14C-0.000110269 275.312 -0.000110269 268.625 0.382167 261.329C2.99052 244.44 11.1572 231.396 23.979 221.722C42.9536 207.404 62.5323 193.887 81.8395 180.009C95.7612 170.003 109.589 159.864 123.592 149.972C134.003 142.617 144.367 135.131 155.268 128.559C160.57 125.363 167.052 124.125 173 122C179.688 122 186.375 122 193.531 122ZM59.3062 333.203C90.5265 355.64 121.734 378.096 152.973 400.507C164.863 409.036 177.84 412.944 192.57 409.98C215.116 405.443 232.354 388.841 234.83 364.681C236.89 344.578 229.528 328.062 212.765 316.047C172.994 287.541 133.271 258.966 93.584 230.343C80.4726 220.887 66.0323 218.075 50.3308 221.079C30.0596 224.957 11.1593 246.143 10.0494 266.556C9.00197 285.82 16.1938 301.535 31.5932 313.222C40.4734 319.961 49.6495 326.311 59.3062 333.203ZM72.6397 200.128C68.7316 202.998 64.8236 205.867 59.9116 209.474C61.9487 209.797 62.551 209.995 63.1443 209.971C77.4322 209.396 89.6507 214.663 100.979 222.91C120.358 237.02 139.89 250.919 159.328 264.885C159.924 264.598 160.408 264.445 160.8 264.164C179.063 251.06 197.575 238.285 215.505 224.741C235.873 209.355 239.96 183.06 230.254 161.731C216.621 131.772 178.168 124.314 153.537 141.997C126.757 161.225 100.005 180.491 72.6397 200.128Z" fill="#101011"/>
<path d="M366.532 122C372.366 123.855 378.243 124.866 382.995 127.737C393.614 134.152 403.835 141.268 413.928 148.504C440.63 167.648 467.225 186.943 493.762 206.315C503.722 213.585 513.819 220.76 523.098 228.845C532.435 236.98 536.869 248.268 538.942 260.269C542.983 283.667 535.751 303.541 518.139 319.073C508.949 327.178 498.393 333.743 488.407 340.937C468.459 355.309 448.496 369.659 428.506 383.972C414.701 393.857 401.098 404.058 386.902 413.349C379.342 418.296 370.389 420.45 361.213 421.017C349.456 421.744 338.052 420.276 327.53 414.803C308.892 405.108 297.155 389.586 294.251 369.019C290.443 342.055 300.647 320.587 323.362 305.024C339.105 294.237 354.42 282.826 370.142 271.538C355.188 260.682 340.688 249.55 325.558 239.352C312.325 230.433 301.638 219.716 296.838 204.28C290.548 184.049 292.763 164.763 305.29 147.287C313.806 135.406 325.15 127.346 339.507 123.85C341.233 123.43 342.987 123.12 344.864 122.38C352.021 122 359.042 122 366.532 122ZM529.108 271.498C529.095 254.754 522.789 240.688 509.339 230.875C467.914 200.649 426.147 170.892 384.505 140.963C372.602 132.408 358.859 130.916 345.324 133.634C323.964 137.923 310.115 151.784 305.477 172.998C300.897 193.946 307.625 211.824 324.705 225.189C332.829 231.546 341.406 237.323 349.787 243.35C382.5 266.873 415.049 290.631 448.002 313.812C464.801 325.629 483.178 326.674 501.407 317.216C519.287 307.941 528.408 292.655 529.108 271.498ZM340.181 408.656C344.688 409.437 349.18 410.758 353.707 410.895C366.18 411.272 377.367 407.272 387.476 399.973C411.692 382.486 435.969 365.083 460.221 347.646C466.106 343.415 471.989 339.184 478.905 334.21C465.633 333.304 454.141 330.614 444.145 323.769C432.649 315.897 421.429 307.621 410.098 299.507C400.014 292.286 389.943 285.046 379.941 277.868C376.15 280.592 372.788 282.998 369.436 285.419C354.088 296.5 338.523 307.295 323.458 318.748C307.006 331.256 299.718 354.85 306.03 373.52C311.708 390.316 322.684 402.128 340.181 408.656Z" fill="#10110F"/>
<path d="M58.9995 333.02C49.6497 326.312 40.4736 319.962 31.5934 313.222C16.194 301.535 9.00216 285.82 10.0496 266.557C11.1595 246.144 30.0598 224.958 50.331 221.08C66.0325 218.075 80.4728 220.887 93.5842 230.343C133.271 258.967 172.994 287.542 212.765 316.048C229.528 328.062 236.89 344.579 234.83 364.682C232.354 388.841 215.116 405.443 192.57 409.98C177.84 412.944 164.863 409.037 152.974 400.508C121.734 378.097 90.5267 355.641 58.9995 333.02Z" fill="#4285F3"/>
<path d="M72.9401 199.934C100.005 180.491 126.757 161.225 153.537 141.997C178.168 124.314 216.621 131.772 230.254 161.731C239.96 183.06 235.873 209.355 215.505 224.741C197.575 238.285 179.063 251.06 160.8 264.164C160.408 264.445 159.924 264.598 159.328 264.885C139.89 250.919 120.358 237.019 100.979 222.91C89.6507 214.663 77.4322 209.396 63.1443 209.971C62.551 209.995 61.9487 209.797 59.9116 209.474C64.8237 205.867 68.7317 202.997 72.9401 199.934Z" fill="#E94335"/>
<path d="M529.108 271.975C528.408 292.655 519.287 307.94 501.407 317.216C483.178 326.673 464.801 325.629 448.002 313.812C415.049 290.63 382.5 266.873 349.787 243.349C341.406 237.323 332.829 231.546 324.705 225.189C307.625 211.824 300.897 193.946 305.477 172.997C310.115 151.784 323.964 137.923 345.324 133.633C358.859 130.915 372.602 132.408 384.505 140.963C426.147 170.892 467.914 200.649 509.339 230.874C522.789 240.687 529.095 254.754 529.108 271.975Z" fill="#34A853"/>
<path d="M339.888 408.377C322.684 402.129 311.708 390.317 306.03 373.521C299.718 354.85 307.006 331.257 323.458 318.749C338.523 307.296 354.088 296.501 369.436 285.419C372.788 282.999 376.15 280.593 379.941 277.869C389.943 285.047 400.014 292.286 410.098 299.508C421.429 307.622 432.648 315.898 444.145 323.77C454.141 330.615 465.633 333.305 478.905 334.211C471.989 339.184 466.106 343.416 460.221 347.646C435.969 365.084 411.692 382.487 387.475 399.974C377.367 407.273 366.18 411.273 353.707 410.896C349.18 410.759 344.688 409.438 339.888 408.377Z" fill="#F8AA00"/>
</g>
<defs>
<clipPath id="clip0_11_33">
<rect width="542" height="300" fill="white" transform="translate(0 121)"/>
</clipPath>
</defs>
</svg>
